<svg width="24" height="32" viewBox="0 0 24 32" fill="none" xmlns="http://www.w3.org/2000/svg">
<g clip-path="url(#clip0_214_14)">
<mask id="mask0_214_14" style="mask-type:luminance" maskUnits="userSpaceOnUse" x="0" y="0" width="24" height="32">
<path d="M24 0H0V32H24V0Z" fill="white"/>
</mask>
<g mask="url(#mask0_214_14)">
<path d="M1.19716 0.418475C0.655718 0.530206 0.297896 0.795563 0.0719033 1.25179C-0.00342782 1.41008 -0.0175524 1.48457 0.0201131 1.57767C0.0813195 1.75924 0.274355 1.88028 0.561555 1.91286L0.81109 1.94546L6.91762 16.7497C10.2793 24.8921 13.0335 31.5726 13.0476 31.6006C13.0806 31.6843 13.7492 31.6471 13.9799 31.5447C14.2106 31.4423 14.5402 31.1816 14.5402 31.0977C14.5402 31.0698 14.1211 30.0642 13.6032 28.8585C13.09 27.6527 12.4968 26.2142 12.2803 25.6648C12.0684 25.1155 11.5646 23.8167 11.1597 22.7785C9.47883 18.4396 9.43646 18.3186 9.43646 17.3735L9.43179 16.7451L9.61543 16.3959C9.85083 15.9536 10.2039 15.4461 10.4299 15.2274C10.7925 14.8829 11.9883 14.2171 12.8923 13.8633C13.5326 13.6073 13.688 13.6166 14.7567 13.975C16.0186 14.3987 16.0891 14.3848 16.8378 13.5933C17.1815 13.2302 17.3792 13.165 18.1042 13.1604C18.6928 13.1604 18.7352 13.1511 19.0035 13.0207L19.2907 12.881L19.3378 13.0719C19.4037 13.3373 19.5732 13.5701 19.7663 13.6678C19.9923 13.7842 20.3501 13.7469 20.8256 13.5607L21.2022 13.4118L21.8143 13.463C22.4311 13.5142 22.9019 13.4862 23.0997 13.3791C23.2456 13.3 23.4386 13.0533 23.4386 12.9369C23.4386 12.8298 23.3398 12.6622 23.1844 12.5132C23.1279 12.462 22.9019 12.2199 22.6806 11.9779C22.2192 11.4704 21.9979 11.0747 21.9179 10.6138C21.8661 10.2973 21.8661 10.2926 22.0309 9.11018C22.1109 8.55154 22.0356 8.25823 21.7484 7.97888C21.6307 7.86252 21.4376 7.70422 21.32 7.62974C20.9668 7.40165 20.755 7.17813 20.755 7.03849C20.755 6.79642 20.5949 6.41933 20.4207 6.24707C20.2701 6.0981 20.1853 6.06086 19.7945 5.9724C19.545 5.91654 19.3284 5.85136 19.3142 5.82343C19.2955 5.7955 19.2719 5.65118 19.2625 5.49289C19.2295 5.01338 18.98 4.68285 18.5751 4.57112C18.415 4.52457 18.2126 4.53387 17.4592 4.61767C16.4375 4.73406 16.4658 4.73872 16.0044 4.44077C15.463 4.09626 14.3989 3.59813 13.9752 3.49571C13.4573 3.37001 12.6946 3.39795 11.8895 3.5702C11.1032 3.74245 10.9808 3.73314 10.5099 3.48175C9.86023 3.13724 9.12103 2.99292 8.70672 3.13724C8.48544 3.21173 8.43367 3.13724 8.33479 2.62049C8.22651 2.04788 8.17001 2.00132 7.53435 1.97804C7.13417 1.96408 6.97413 1.9827 6.23021 2.14564C5.7641 2.25271 5.24149 2.35047 5.072 2.36444C4.70005 2.40169 4.12094 2.32254 3.91849 2.20616C3.84316 2.1596 3.63129 2.0758 3.44768 2.01528C3.26876 1.95476 2.92507 1.8151 2.68495 1.70803C2.33654 1.54509 2.22355 1.5125 2.15292 1.54974C2.10584 1.57767 2.06347 1.61492 2.06347 1.63354C2.06818 1.65216 2.18588 1.74993 2.33183 1.85234C2.7697 2.16426 3.10869 2.59721 3.7537 3.67727C4.91192 5.61394 6.00422 8.36533 8.37243 15.2599C9.1728 17.597 9.86496 19.5476 10.4912 21.2469C10.8536 22.2245 11.1455 23.0345 11.1361 23.0392C11.122 23.0578 2.03992 1.78251 2.0258 1.68475C2.01638 1.63819 2.05876 1.54974 2.11526 1.49387C2.24709 1.35421 2.44012 0.953848 2.44012 0.804878C2.44012 0.404509 1.95989 0.255536 1.19716 0.418475ZM1.79981 0.618659C1.86572 0.641936 1.92222 0.683836 1.92222 0.707114C1.92222 0.758321 1.71035 0.828156 1.42786 0.874706C1.32428 0.888677 1.15949 0.953848 1.06533 1.01902C0.867586 1.14472 0.693381 1.18196 0.665135 1.09816C0.636885 1.02368 0.905253 0.7397 1.08416 0.651248C1.25837 0.562794 1.6209 0.548828 1.79981 0.618659ZM7.37431 2.64377C7.55794 2.7974 7.81687 3.32812 8.07113 4.07299C8.18414 4.40818 8.27829 4.69682 8.27829 4.71078C8.27829 4.72475 8.1229 4.45473 7.92987 4.10558C7.74151 3.76107 7.45433 3.26294 7.29895 3.00224C7.0259 2.55066 7.0165 2.52739 7.12478 2.52739C7.18594 2.52739 7.29895 2.57859 7.37431 2.64377ZM9.81312 3.76573C10.0156 3.86814 10.3969 4.07299 10.6559 4.21731C10.9149 4.36163 11.1785 4.48732 11.2444 4.49197C11.3527 4.50595 11.3621 4.48732 11.3857 4.29645L11.4092 4.08696L11.7058 4.00781C12.139 3.89608 12.8593 3.83556 13.2925 3.87746C14.1776 3.96592 14.8462 4.24058 16.0327 5.00873L16.4658 5.28805L16.5883 5.64187C16.9413 6.66141 17.1767 7.55525 17.5299 9.17997C17.7229 10.0645 18.189 11.1259 18.7964 12.0663L19.0177 12.4061L18.8999 12.5319C18.6975 12.7414 18.2643 12.8624 17.7418 12.8578C17.2756 12.8531 16.9272 12.9089 16.7107 13.0254C16.6447 13.0626 16.4752 13.1976 16.3387 13.3233C16.1975 13.4536 15.995 13.5933 15.8773 13.6352C15.5665 13.7516 15.0204 13.7004 14.3754 13.4956C14.0128 13.3791 13.768 13.3279 13.5703 13.3279C13.236 13.3279 12.6239 13.4909 12.0825 13.7237L11.72 13.8773L11.4328 13.0533C11.2727 12.6017 10.7877 11.1865 10.3499 9.90623C9.91673 8.62603 9.46005 7.33643 9.34704 7.03849C9.13515 6.49847 8.76795 5.12512 8.63136 4.36628C8.54661 3.88677 8.54661 3.8309 8.60784 3.66796C8.65495 3.54227 8.65961 3.54227 9.0504 3.55623C9.39881 3.57485 9.47883 3.59348 9.81312 3.76573ZM18.3961 5.25547C18.4621 5.31133 18.3067 5.26012 18.2314 5.1996C18.1466 5.13443 18.1466 5.13443 18.2596 5.18564C18.3255 5.21357 18.3867 5.24615 18.3961 5.25547ZM7.60971 17.3083C7.63797 17.3689 8.95625 20.4927 10.5429 24.2496C13.4667 31.1862 13.4667 31.1908 13.2266 31.1443C13.1701 31.135 7.43081 17.3875 7.43081 17.2478C7.43081 17.15 7.55321 17.1873 7.60971 17.3083ZM12.5627 26.5261C12.5627 26.5494 12.5392 26.5401 12.5157 26.5028C12.4921 26.4656 12.4685 26.4097 12.4685 26.3865C12.4685 26.3585 12.4921 26.3725 12.5157 26.4097C12.5392 26.447 12.5627 26.4982 12.5627 26.5261ZM12.6569 26.7589C12.6569 26.7822 12.6333 26.7728 12.6098 26.7356C12.5863 26.6984 12.5627 26.6425 12.5627 26.6192C12.5627 26.5913 12.5863 26.6052 12.6098 26.6425C12.6333 26.6797 12.6569 26.731 12.6569 26.7589ZM12.7511 26.9917C12.7511 27.015 12.7275 27.0056 12.704 26.9684C12.6804 26.9311 12.6569 26.8752 12.6569 26.852C12.6569 26.824 12.6804 26.838 12.704 26.8752C12.7275 26.9125 12.7511 26.9637 12.7511 26.9917Z" fill="#000406"/>
<path d="M9.92629 4.88774C9.92629 4.98085 10.0769 5.30673 10.1712 5.41846C10.2041 5.46036 10.303 5.52553 10.383 5.57208C10.5195 5.64192 10.8538 5.99573 11.0657 6.29833C11.1174 6.37282 11.1033 6.30765 11.028 6.11211C10.7596 5.44173 9.92156 4.51065 9.92629 4.88774Z" fill="#000406"/>
<path d="M11.9887 5.06945C11.9181 5.10669 11.8475 5.18584 11.8286 5.24636C11.7674 5.49309 12.1394 6.02381 12.469 6.15882C12.6243 6.224 12.6573 6.29848 12.5301 6.29848C12.4831 6.29848 12.2571 6.25658 12.0264 6.20538C11.7957 6.15416 11.598 6.12158 11.5885 6.13088C11.5744 6.1402 11.6262 6.29383 11.7015 6.47073C11.8569 6.83389 11.871 6.84785 12.5255 7.02473C12.9586 7.14579 12.9728 7.15512 13.0198 7.31804C13.048 7.41112 13.1658 7.7975 13.2835 8.18395C13.4012 8.5657 13.5989 9.26868 13.7166 9.73418C13.8344 10.2043 13.9944 10.7909 14.0744 11.033C14.1545 11.2751 14.2063 11.5032 14.1922 11.5404C14.1215 11.722 13.5895 11.5591 13.0245 11.182C12.7138 10.9725 12.0923 10.493 12.0923 10.4604C12.0923 10.4464 12.1582 10.4744 12.2382 10.5116C12.3183 10.5535 12.3889 10.5814 12.3983 10.5721C12.4077 10.5628 12.1771 10.3766 11.8851 10.1531C11.5932 9.92972 11.2448 9.64111 11.113 9.51072C10.9577 9.36175 10.8682 9.30123 10.8682 9.3478C10.8682 9.45489 11.0471 9.96696 11.1366 10.1113C11.2637 10.3114 11.7815 10.9492 11.8239 10.9539C11.8428 10.9539 11.8569 10.9119 11.8569 10.8607C11.8569 10.8095 11.8758 10.7677 11.8993 10.7677C11.9228 10.7677 12.097 10.8747 12.2901 11.0051C12.7655 11.3309 13.5236 11.7732 14.1404 12.0851C14.5029 12.2667 14.7619 12.4389 15.0019 12.6531L15.3409 12.965V12.7229C15.3409 12.4204 15.3739 12.3598 15.7694 11.9687C16.0095 11.7313 16.1413 11.5544 16.2873 11.2564C16.3908 11.0377 16.4897 10.8607 16.5038 10.8607C16.518 10.8607 16.5839 10.9027 16.6498 10.9585L16.777 11.0563L16.8099 10.8282C16.857 10.4744 16.8523 10.0507 16.7958 9.89248L16.744 9.74351L16.5557 9.90643C16.4473 9.99488 16.2308 10.1113 16.0519 10.1671C15.8824 10.223 15.7223 10.2835 15.7035 10.3021C15.68 10.3208 15.7411 10.3813 15.8306 10.4417C15.9248 10.4976 16.0001 10.5535 16.0001 10.5628C16.0001 10.5721 15.9483 10.7118 15.8824 10.8701C15.6235 11.4986 15.2374 11.7732 14.8466 11.5963C14.7006 11.5312 14.5735 11.154 14.1874 9.65037C13.9662 8.78446 13.5801 7.43903 13.4765 7.16437C13.4577 7.1225 13.5754 7.03406 13.8531 6.88509C14.0744 6.76403 14.2581 6.64764 14.2581 6.62436C14.2581 6.60109 14.2016 6.43815 14.1357 6.25658L14.0133 5.93536L13.5707 6.09364C13.1328 6.24728 13.0387 6.24262 13.2082 6.0564C13.4059 5.83759 13.2411 5.27428 12.9209 5.08341C12.7374 4.97168 12.1818 4.96237 11.9887 5.06945ZM12.8033 5.45585C12.9492 5.60017 12.968 5.69327 12.8927 5.83759C12.8079 5.99122 12.5349 5.9307 12.3654 5.72121C12.2618 5.60017 12.2571 5.48844 12.356 5.39533C12.469 5.27894 12.6479 5.30688 12.8033 5.45585Z" fill="#000406"/>
<path d="M14.2104 5.89287C14.2104 5.9115 14.3706 6.37704 14.4223 6.52602C14.4412 6.57257 14.4647 6.57723 14.4977 6.54464C14.5683 6.4748 14.3706 5.87891 14.2764 5.87891C14.2387 5.87891 14.2104 5.88822 14.2104 5.89287Z" fill="#000406"/>
<path d="M14.5497 5.93562C14.5638 5.96821 14.6109 6.10787 14.6533 6.23823C14.7146 6.41513 14.7616 6.48496 14.8181 6.48496C14.8652 6.48496 15.0065 6.49893 15.1289 6.51755L15.3548 6.54548L15.3266 6.37323C15.2843 6.11718 15.1806 5.98217 14.9782 5.93096C14.7287 5.86114 14.5262 5.86579 14.5497 5.93562Z" fill="#000406"/>
<path d="M11.1504 5.93975C11.1504 6.00492 11.4047 6.56823 11.4612 6.61944C11.5742 6.73582 11.5789 6.64272 11.48 6.38667C11.3623 6.09337 11.2587 5.92578 11.1975 5.92578C11.1692 5.92578 11.1504 5.93044 11.1504 5.93975Z" fill="#000406"/>
<path d="M14.5688 7.4393C14.3663 7.65813 14.3663 8.03988 14.5734 8.26333C14.7147 8.42163 14.7712 8.36573 14.6959 8.14698C14.6111 7.9095 14.6723 7.6488 14.8371 7.53244C14.9642 7.444 15.0725 7.444 15.2467 7.53244C15.4115 7.61625 15.4304 7.56505 15.2844 7.43467C15.2138 7.37414 15.0914 7.3369 14.9313 7.32757C14.7147 7.31831 14.6723 7.33227 14.5688 7.4393Z" fill="#000406"/>
<path d="M12.0029 7.89121C12.0782 8.12862 12.1394 8.37074 12.1394 8.43126C12.1394 8.53366 12.1206 8.54299 11.9888 8.52434L11.8428 8.50105L12.0123 8.65472C12.1818 8.80832 12.4266 8.86885 12.4878 8.77108C12.502 8.75249 12.4454 8.51038 12.3654 8.23572C12.2336 7.79344 12.1959 7.71896 12.0405 7.5979L11.8663 7.46289L12.0029 7.89121Z" fill="#000406"/>
<path d="M11.5505 8.00692C11.6211 8.1326 11.734 8.28157 11.8 8.34673L11.9224 8.46316L11.8376 8.34673C11.7953 8.28157 11.6916 8.1326 11.6116 8.00692C11.5316 7.88586 11.4562 7.78809 11.4468 7.78809C11.4327 7.78809 11.4798 7.88586 11.5505 8.00692Z" fill="#000406"/>
<path d="M15.3028 8.06717L15.317 8.27668L15.0627 8.39773C14.8367 8.50945 14.8179 8.52341 14.9167 8.55596C15.0297 8.5932 15.4723 8.55133 15.5618 8.4955C15.6465 8.44423 15.5429 8.09509 15.4064 7.9694L15.2887 7.8623L15.3028 8.06717Z" fill="#000406"/>
<path d="M14.9922 7.96943C14.9639 8.0113 15.1899 8.18356 15.2229 8.15095C15.237 8.14169 15.2323 8.08579 15.2135 8.02989C15.1899 7.92749 15.0393 7.89025 14.9922 7.96943Z" fill="#000406"/>
</g>
</g>
<defs>
<clipPath id="clip0_214_14">
<rect width="24" height="32" fill="white"/>
</clipPath>
</defs>
</svg>
