<svg width="227" height="97" viewBox="0 0 227 97" fill="none" xmlns="http://www.w3.org/2000/svg">
<g clip-path="url(#clip0_215_45)">
<mask id="mask0_215_45" style="mask-type:luminance" maskUnits="userSpaceOnUse" x="0" y="0" width="227" height="97">
<path d="M227 0H0V97H227V0Z" fill="white"/>
</mask>
<g mask="url(#mask0_215_45)">
<path d="M227 36.9521H0V41.5712H227V36.9521Z" fill="#3F9C35"/>
<path d="M227 46.1904H0V55.4285H227V46.1904Z" fill="#003591"/>
<path d="M227 0H0V27.7143H227V0Z" fill="#99D9F0"/>
<path d="M136.988 69.3321C134.458 68.2774 131.733 67.7672 128.993 67.8351H113.158V97.0002H128.993C131.733 97.0686 134.458 96.5582 136.988 95.503C139.138 94.5798 140.941 93.0008 142.136 90.9925C143.407 88.679 144.027 86.0655 143.93 83.429V81.407C144.027 78.7707 143.407 76.1572 142.136 73.8435C140.941 71.8354 139.138 70.2562 136.988 69.3321ZM139.133 83.2726C139.238 84.5584 139.066 85.8515 138.629 87.0653C138.191 88.2795 137.499 89.3859 136.597 90.3111C134.451 91.9909 131.752 92.8094 129.031 92.6054H118.033V72.2299H129.031C131.743 72.0283 134.434 72.8237 136.597 74.4657C137.508 75.3965 138.206 76.5127 138.644 77.7376C139.081 78.9626 139.248 80.2673 139.133 81.5624V83.2726Z" fill="white"/>
<path d="M180.551 90.6263L157.929 67.8359H155.24H153.172V97.0006H157.929V74.2379L180.551 97.0006H185.348V67.8359H180.551V90.6263Z" fill="white"/>
<path d="M221.814 67.8359L210.619 90.6263L199.426 67.8359H193.927L208.592 97.0006H212.375L227 67.8359H221.814Z" fill="white"/>
</g>
</g>
<defs>
<clipPath id="clip0_215_45">
<rect width="227" height="97" fill="white"/>
</clipPath>
</defs>
</svg>
